# xmcd CD database file
#
# Track frame offsets:
#	150
#	26463
#	51927
#	76385
#	124519
#	141901
#	178588
#	202995
#	224761
#
# Disc length: 3378 seconds
#
# Revision: 0
# Processed by: cddbd v1.5.2PL0 Copyright (c) Steve Scherf et al.
# Submitted via: CDex 1.70beta2
#
DISCID=7f0d3009
DTITLE=Susanna De and Uli Geissendoerfer - Uncrowned Queen
DYEAR=2006
DGENRE=Jazz
TTITLE0=I Can See Clearly
TTITLE1=Uncrowned Queen
TTITLE2=Feel At Home
TTITLE3=You Don't Know What Time It Was
TTITLE4=I Didn't Know What Time It Was
TTITLE5=Dindi
TTITLE6=You Can Do It
TTITLE7=All God's Children
TTITLE8=You Say, You Feel
EXTD=YEAR: 2006
EXTT0=
EXTT1=
EXTT2=
EXTT3=
EXTT4=
EXTT5=
EXTT6=
EXTT7=
EXTT8=
PLAYORDER=
